<mxfile host="app.diagrams.net" modified="2024-01-21T08:13:36.072Z" agent="Mozilla/5.0 (Windows NT 10.0; Win64; x64) AppleWebKit/537.36 (KHTML, like Gecko) Chrome/120.0.0.0 Safari/537.36" etag="YZtjE9QZ8wyWqEzd9UKn" version="22.1.21" type="github">
  <diagram name="第 1 页" id="hQT8g4xqrgdXHwTmV0zp">
    <mxGraphModel dx="1018" dy="603" grid="1" gridSize="10" guides="1" tooltips="1" connect="1" arrows="1" fold="1" page="1" pageScale="1" pageWidth="827" pageHeight="1169" math="0" shadow="0">
      <root>
        <mxCell id="0" />
        <mxCell id="1" parent="0" />
        <mxCell id="M-Zgcfuh5SkzwA9oUuNu-1" value="&lt;font style=&quot;font-size: 24px;&quot;&gt;Ri&lt;/font&gt;" style="text;html=1;strokeColor=none;fillColor=none;align=center;verticalAlign=middle;whiteSpace=wrap;rounded=0;" vertex="1" parent="1">
          <mxGeometry x="384" y="180" width="60" height="30" as="geometry" />
        </mxCell>
        <mxCell id="M-Zgcfuh5SkzwA9oUuNu-2" value="&lt;font style=&quot;font-size: 24px;&quot;&gt;Li&lt;/font&gt;" style="text;html=1;strokeColor=none;fillColor=none;align=center;verticalAlign=middle;whiteSpace=wrap;rounded=0;" vertex="1" parent="1">
          <mxGeometry x="160" y="180" width="60" height="30" as="geometry" />
        </mxCell>
        <mxCell id="M-Zgcfuh5SkzwA9oUuNu-3" value="&lt;font style=&quot;font-size: 24px;&quot;&gt;Li+1&lt;/font&gt;" style="text;html=1;strokeColor=none;fillColor=none;align=center;verticalAlign=middle;whiteSpace=wrap;rounded=0;" vertex="1" parent="1">
          <mxGeometry x="160" y="480" width="60" height="30" as="geometry" />
        </mxCell>
        <mxCell id="M-Zgcfuh5SkzwA9oUuNu-4" value="&lt;font style=&quot;font-size: 24px;&quot;&gt;Ri+1&lt;/font&gt;" style="text;html=1;strokeColor=none;fillColor=none;align=center;verticalAlign=middle;whiteSpace=wrap;rounded=0;" vertex="1" parent="1">
          <mxGeometry x="385" y="480" width="60" height="30" as="geometry" />
        </mxCell>
        <mxCell id="M-Zgcfuh5SkzwA9oUuNu-5" value="" style="endArrow=classic;html=1;rounded=0;entryX=0.75;entryY=0;entryDx=0;entryDy=0;exitX=0.25;exitY=1;exitDx=0;exitDy=0;" edge="1" parent="1" source="M-Zgcfuh5SkzwA9oUuNu-1" target="M-Zgcfuh5SkzwA9oUuNu-3">
          <mxGeometry width="50" height="50" relative="1" as="geometry">
            <mxPoint x="400" y="350" as="sourcePoint" />
            <mxPoint x="450" y="300" as="targetPoint" />
          </mxGeometry>
        </mxCell>
        <mxCell id="M-Zgcfuh5SkzwA9oUuNu-6" value="" style="endArrow=classic;html=1;rounded=0;exitX=0.5;exitY=1;exitDx=0;exitDy=0;" edge="1" parent="1" source="M-Zgcfuh5SkzwA9oUuNu-1" target="M-Zgcfuh5SkzwA9oUuNu-7">
          <mxGeometry width="50" height="50" relative="1" as="geometry">
            <mxPoint x="400" y="330" as="sourcePoint" />
            <mxPoint x="414" y="280" as="targetPoint" />
          </mxGeometry>
        </mxCell>
        <mxCell id="M-Zgcfuh5SkzwA9oUuNu-7" value="&lt;font style=&quot;font-size: 24px;&quot;&gt;F&lt;/font&gt;" style="rounded=0;whiteSpace=wrap;html=1;" vertex="1" parent="1">
          <mxGeometry x="359" y="270" width="110" height="50" as="geometry" />
        </mxCell>
        <mxCell id="M-Zgcfuh5SkzwA9oUuNu-8" value="" style="endArrow=classic;html=1;rounded=0;exitX=0.5;exitY=1;exitDx=0;exitDy=0;" edge="1" parent="1" source="M-Zgcfuh5SkzwA9oUuNu-7">
          <mxGeometry width="50" height="50" relative="1" as="geometry">
            <mxPoint x="400" y="330" as="sourcePoint" />
            <mxPoint x="415" y="370" as="targetPoint" />
          </mxGeometry>
        </mxCell>
        <mxCell id="M-Zgcfuh5SkzwA9oUuNu-9" value="&lt;font style=&quot;font-size: 24px;&quot;&gt;+&lt;/font&gt;" style="ellipse;whiteSpace=wrap;html=1;aspect=fixed;" vertex="1" parent="1">
          <mxGeometry x="394" y="370" width="40" height="40" as="geometry" />
        </mxCell>
        <mxCell id="M-Zgcfuh5SkzwA9oUuNu-10" value="" style="endArrow=classic;html=1;rounded=0;entryX=0;entryY=0.5;entryDx=0;entryDy=0;" edge="1" parent="1" target="M-Zgcfuh5SkzwA9oUuNu-9">
          <mxGeometry width="50" height="50" relative="1" as="geometry">
            <mxPoint x="200" y="220" as="sourcePoint" />
            <mxPoint x="450" y="270" as="targetPoint" />
          </mxGeometry>
        </mxCell>
        <mxCell id="M-Zgcfuh5SkzwA9oUuNu-11" value="" style="endArrow=classic;html=1;rounded=0;exitX=0.5;exitY=1;exitDx=0;exitDy=0;" edge="1" parent="1" source="M-Zgcfuh5SkzwA9oUuNu-9">
          <mxGeometry width="50" height="50" relative="1" as="geometry">
            <mxPoint x="410" y="420" as="sourcePoint" />
            <mxPoint x="414" y="470" as="targetPoint" />
          </mxGeometry>
        </mxCell>
        <mxCell id="M-Zgcfuh5SkzwA9oUuNu-15" value="" style="endArrow=classic;html=1;rounded=0;" edge="1" parent="1">
          <mxGeometry width="50" height="50" relative="1" as="geometry">
            <mxPoint x="540" y="290" as="sourcePoint" />
            <mxPoint x="470" y="290" as="targetPoint" />
          </mxGeometry>
        </mxCell>
        <mxCell id="M-Zgcfuh5SkzwA9oUuNu-18" value="&lt;font style=&quot;font-size: 24px;&quot;&gt;Ki&lt;/font&gt;" style="text;html=1;strokeColor=none;fillColor=none;align=center;verticalAlign=middle;whiteSpace=wrap;rounded=0;" vertex="1" parent="1">
          <mxGeometry x="550" y="280" width="60" height="30" as="geometry" />
        </mxCell>
        <mxCell id="M-Zgcfuh5SkzwA9oUuNu-19" value="&lt;font style=&quot;font-size: 24px;&quot;&gt;Ri+1&lt;/font&gt;" style="text;html=1;strokeColor=none;fillColor=none;align=center;verticalAlign=middle;whiteSpace=wrap;rounded=0;" vertex="1" parent="1">
          <mxGeometry x="145" y="585" width="90" height="45" as="geometry" />
        </mxCell>
        <mxCell id="M-Zgcfuh5SkzwA9oUuNu-22" value="&lt;font style=&quot;font-size: 24px;&quot;&gt;Li+1&lt;/font&gt;" style="text;html=1;strokeColor=none;fillColor=none;align=center;verticalAlign=middle;whiteSpace=wrap;rounded=0;" vertex="1" parent="1">
          <mxGeometry x="370" y="585" width="90" height="45" as="geometry" />
        </mxCell>
        <mxCell id="M-Zgcfuh5SkzwA9oUuNu-25" value="&lt;font style=&quot;font-size: 24px;&quot;&gt;Li&lt;/font&gt;" style="text;html=1;strokeColor=none;fillColor=none;align=center;verticalAlign=middle;whiteSpace=wrap;rounded=0;" vertex="1" parent="1">
          <mxGeometry x="160" y="877.5" width="60" height="30" as="geometry" />
        </mxCell>
        <mxCell id="M-Zgcfuh5SkzwA9oUuNu-26" value="&lt;font style=&quot;font-size: 24px;&quot;&gt;Ri&lt;/font&gt;" style="text;html=1;strokeColor=none;fillColor=none;align=center;verticalAlign=middle;whiteSpace=wrap;rounded=0;" vertex="1" parent="1">
          <mxGeometry x="382" y="870" width="60" height="30" as="geometry" />
        </mxCell>
        <mxCell id="M-Zgcfuh5SkzwA9oUuNu-27" value="" style="endArrow=classic;html=1;rounded=0;entryX=0.75;entryY=0;entryDx=0;entryDy=0;exitX=0.25;exitY=1;exitDx=0;exitDy=0;" edge="1" parent="1" source="M-Zgcfuh5SkzwA9oUuNu-22" target="M-Zgcfuh5SkzwA9oUuNu-25">
          <mxGeometry width="50" height="50" relative="1" as="geometry">
            <mxPoint x="400" y="800" as="sourcePoint" />
            <mxPoint x="450" y="750" as="targetPoint" />
          </mxGeometry>
        </mxCell>
        <mxCell id="M-Zgcfuh5SkzwA9oUuNu-28" value="" style="endArrow=classic;html=1;rounded=0;exitX=0.448;exitY=0.97;exitDx=0;exitDy=0;exitPerimeter=0;" edge="1" parent="1" source="M-Zgcfuh5SkzwA9oUuNu-22" target="M-Zgcfuh5SkzwA9oUuNu-29">
          <mxGeometry width="50" height="50" relative="1" as="geometry">
            <mxPoint x="400" y="800" as="sourcePoint" />
            <mxPoint x="410" y="700" as="targetPoint" />
          </mxGeometry>
        </mxCell>
        <mxCell id="M-Zgcfuh5SkzwA9oUuNu-29" value="&lt;font style=&quot;font-size: 24px;&quot;&gt;F&lt;/font&gt;" style="rounded=0;whiteSpace=wrap;html=1;" vertex="1" parent="1">
          <mxGeometry x="359" y="680" width="106" height="40" as="geometry" />
        </mxCell>
        <mxCell id="M-Zgcfuh5SkzwA9oUuNu-30" value="" style="endArrow=classic;html=1;rounded=0;entryX=1;entryY=0.5;entryDx=0;entryDy=0;" edge="1" parent="1" target="M-Zgcfuh5SkzwA9oUuNu-29">
          <mxGeometry width="50" height="50" relative="1" as="geometry">
            <mxPoint x="540" y="700" as="sourcePoint" />
            <mxPoint x="450" y="750" as="targetPoint" />
          </mxGeometry>
        </mxCell>
        <mxCell id="M-Zgcfuh5SkzwA9oUuNu-31" value="&lt;font style=&quot;font-size: 24px;&quot;&gt;Ki&lt;/font&gt;" style="text;html=1;strokeColor=none;fillColor=none;align=center;verticalAlign=middle;whiteSpace=wrap;rounded=0;" vertex="1" parent="1">
          <mxGeometry x="540" y="685" width="60" height="30" as="geometry" />
        </mxCell>
        <mxCell id="M-Zgcfuh5SkzwA9oUuNu-32" value="" style="endArrow=classic;html=1;rounded=0;exitX=0.5;exitY=1;exitDx=0;exitDy=0;" edge="1" parent="1" source="M-Zgcfuh5SkzwA9oUuNu-29" target="M-Zgcfuh5SkzwA9oUuNu-33">
          <mxGeometry width="50" height="50" relative="1" as="geometry">
            <mxPoint x="400" y="790" as="sourcePoint" />
            <mxPoint x="412" y="780" as="targetPoint" />
          </mxGeometry>
        </mxCell>
        <mxCell id="M-Zgcfuh5SkzwA9oUuNu-33" value="&lt;font style=&quot;font-size: 24px;&quot;&gt;+&lt;/font&gt;" style="ellipse;whiteSpace=wrap;html=1;aspect=fixed;" vertex="1" parent="1">
          <mxGeometry x="392" y="760" width="40" height="40" as="geometry" />
        </mxCell>
        <mxCell id="M-Zgcfuh5SkzwA9oUuNu-34" value="" style="endArrow=classic;html=1;rounded=0;exitX=0.5;exitY=1;exitDx=0;exitDy=0;" edge="1" parent="1" source="M-Zgcfuh5SkzwA9oUuNu-33">
          <mxGeometry width="50" height="50" relative="1" as="geometry">
            <mxPoint x="400" y="800" as="sourcePoint" />
            <mxPoint x="412" y="860" as="targetPoint" />
          </mxGeometry>
        </mxCell>
        <mxCell id="M-Zgcfuh5SkzwA9oUuNu-35" value="" style="endArrow=classic;html=1;rounded=0;exitX=0.5;exitY=1;exitDx=0;exitDy=0;" edge="1" parent="1" source="M-Zgcfuh5SkzwA9oUuNu-19">
          <mxGeometry width="50" height="50" relative="1" as="geometry">
            <mxPoint x="400" y="790" as="sourcePoint" />
            <mxPoint x="390" y="780" as="targetPoint" />
          </mxGeometry>
        </mxCell>
      </root>
    </mxGraphModel>
  </diagram>
</mxfile>
